<svg id="visual" viewBox="0 0 900 600" width="900" height="600" xmlns="http://www.w3.org/2000/svg" xmlns:xlink="http://www.w3.org/1999/xlink" version="1.1"><path d="M0 110L18.8 112.2C37.7 114.3 75.3 118.7 112.8 123C150.3 127.3 187.7 131.7 225.2 134C262.7 136.3 300.3 136.7 337.8 132.8C375.3 129 412.7 121 450.2 116C487.7 111 525.3 109 562.8 110.2C600.3 111.3 637.7 115.7 675.2 119.5C712.7 123.3 750.3 126.7 787.8 129.2C825.3 131.7 862.7 133.3 881.3 134.2L900 135L900 0L881.3 0C862.7 0 825.3 0 787.8 0C750.3 0 712.7 0 675.2 0C637.7 0 600.3 0 562.8 0C525.3 0 487.7 0 450.2 0C412.7 0 375.3 0 337.8 0C300.3 0 262.7 0 225.2 0C187.7 0 150.3 0 112.8 0C75.3 0 37.7 0 18.8 0L0 0Z" fill="#3c4de6"></path><path d="M0 83L18.8 85.5C37.7 88 75.3 93 112.8 92.5C150.3 92 187.7 86 225.2 87.3C262.7 88.7 300.3 97.3 337.8 97.3C375.3 97.3 412.7 88.7 450.2 88.5C487.7 88.3 525.3 96.7 562.8 99.7C600.3 102.7 637.7 100.3 675.2 96C712.7 91.7 750.3 85.3 787.8 84.5C825.3 83.7 862.7 88.3 881.3 90.7L900 93L900 0L881.3 0C862.7 0 825.3 0 787.8 0C750.3 0 712.7 0 675.2 0C637.7 0 600.3 0 562.8 0C525.3 0 487.7 0 450.2 0C412.7 0 375.3 0 337.8 0C300.3 0 262.7 0 225.2 0C187.7 0 150.3 0 112.8 0C75.3 0 37.7 0 18.8 0L0 0Z" fill="#2e3cb8"></path><path d="M0 54L18.8 55.2C37.7 56.3 75.3 58.7 112.8 59.2C150.3 59.7 187.7 58.3 225.2 57C262.7 55.7 300.3 54.3 337.8 55.2C375.3 56 412.7 59 450.2 62C487.7 65 525.3 68 562.8 66.3C600.3 64.7 637.7 58.3 675.2 56.2C712.7 54 750.3 56 787.8 58.2C825.3 60.3 862.7 62.7 881.3 63.8L900 65L900 0L881.3 0C862.7 0 825.3 0 787.8 0C750.3 0 712.7 0 675.2 0C637.7 0 600.3 0 562.8 0C525.3 0 487.7 0 450.2 0C412.7 0 375.3 0 337.8 0C300.3 0 262.7 0 225.2 0C187.7 0 150.3 0 112.8 0C75.3 0 37.7 0 18.8 0L0 0Z" fill="#212c8b"></path><path d="M0 40L18.8 38.3C37.7 36.7 75.3 33.3 112.8 31.3C150.3 29.3 187.7 28.7 225.2 31C262.7 33.3 300.3 38.7 337.8 38.5C375.3 38.3 412.7 32.7 450.2 32.5C487.7 32.3 525.3 37.7 562.8 40.5C600.3 43.3 637.7 43.7 675.2 43.8C712.7 44 750.3 44 787.8 41.8C825.3 39.7 862.7 35.3 881.3 33.2L900 31L900 0L881.3 0C862.7 0 825.3 0 787.8 0C750.3 0 712.7 0 675.2 0C637.7 0 600.3 0 562.8 0C525.3 0 487.7 0 450.2 0C412.7 0 375.3 0 337.8 0C300.3 0 262.7 0 225.2 0C187.7 0 150.3 0 112.8 0C75.3 0 37.7 0 18.8 0L0 0Z" fill="#141c62"></path></svg>