<?xml version="1.0" standalone="no"?>
<!DOCTYPE svg PUBLIC "-//W3C//DTD SVG 20010904//EN"
 "http://www.w3.org/TR/2001/REC-SVG-20010904/DTD/svg10.dtd">
<svg version="1.0" xmlns="http://www.w3.org/2000/svg"
 width="1024.000000pt" height="1024.000000pt" viewBox="0 0 1024.000000 1024.000000"
 preserveAspectRatio="xMidYMid meet">
<metadata>
Created by potrace 1.14, written by Peter Selinger 2001-2017
</metadata>
<g transform="translate(0.000000,1024.000000) scale(0.100000,-0.100000)"
fill="#000000" stroke="none">
<path d="M5476 8495 c-228 -93 -388 -306 -403 -534 -10 -150 29 -259 128 -366
71 -75 158 -127 261 -155 74 -20 98 -21 341 -18 243 3 266 5 317 26 30 12 59
22 65 22 16 0 -87 -99 -136 -131 -63 -40 -124 -56 -259 -68 -138 -12 -226 -38
-306 -89 -52 -34 -124 -102 -135 -128 -2 -5 -29 -28 -59 -50 -146 -109 -283
-272 -367 -435 -101 -197 -141 -357 -150 -604 -8 -241 26 -448 111 -661 19
-49 33 -90 31 -93 -7 -6 -6 -8 -67 109 -142 268 -208 518 -208 785 0 239 54
440 171 639 63 106 98 149 226 279 64 64 114 117 111 117 -3 0 -63 -20 -133
-45 -248 -88 -463 -137 -685 -156 -148 -12 -236 -8 -500 23 -320 37 -581 26
-822 -37 -591 -154 -969 -494 -1074 -968 -10 -43 -18 -131 -19 -220 l-3 -148
-41 -44 c-23 -25 -47 -57 -53 -73 -7 -15 -12 -86 -13 -167 0 -95 -5 -147 -14
-163 -12 -23 -11 -24 11 -17 72 21 173 79 222 127 84 85 106 184 66 298 -23
66 -24 115 -5 240 36 235 146 431 323 572 76 60 234 145 240 128 2 -4 -4 -25
-13 -47 -61 -143 -89 -303 -88 -508 0 -241 24 -362 144 -730 124 -380 136
-452 104 -614 -19 -101 -21 -84 37 -443 17 -109 35 -203 39 -210 6 -9 50 -14
154 -16 l146 -3 -8 73 c-4 40 -7 118 -7 173 1 129 15 161 128 285 231 254 235
468 14 824 -27 43 -47 80 -45 83 2 2 33 -32 68 -74 71 -87 245 -261 319 -319
41 -32 53 -51 75 -109 53 -144 51 -258 -5 -476 -34 -132 -43 -103 94 -310 l95
-143 155 -2 c86 -1 156 0 156 2 0 2 -11 43 -25 90 -42 147 -31 228 46 314 87
97 136 172 158 243 14 42 15 43 113 21 106 -24 378 -22 521 4 l107 19 44 -81
c50 -92 134 -302 195 -486 l41 -125 330 -2 330 -3 4 23 c28 131 115 465 143
550 30 89 40 110 63 122 47 25 169 155 231 249 118 176 202 368 284 652 l45
155 -37 56 c-52 79 -178 208 -323 333 -266 228 -339 332 -370 523 -13 79 -9
203 9 262 10 34 8 38 29 -76 20 -111 105 -254 200 -339 55 -50 182 -119 285
-155 26 -9 60 -27 75 -40 27 -23 34 -36 88 -150 37 -79 108 -148 192 -188 l67
-32 203 -3 c182 -3 211 -1 270 17 122 37 214 118 269 238 21 45 27 74 28 128
0 85 -28 149 -105 240 -64 74 -82 110 -117 222 -26 84 -27 98 -28 328 -2 192
-6 253 -19 305 -22 80 -73 199 -115 265 -17 27 -31 54 -31 59 1 17 134 -131
171 -190 l34 -53 135 0 c147 -1 216 16 316 74 151 89 244 250 244 424 0 162
-57 287 -195 427 -72 73 -105 99 -165 127 -41 20 -87 39 -102 42 -46 12 -46
-18 -1 -72 227 -276 239 -540 29 -651 -49 -26 -57 -27 -206 -27 -181 0 -209 9
-300 92 -30 28 -80 63 -110 78 -47 24 -68 29 -140 29 -71 1 -99 -4 -167 -29
l-82 -30 -78 17 c-43 10 -103 24 -133 33 -30 8 -84 15 -120 15 -115 0 -193
-31 -344 -134 -100 -69 -152 -78 -406 -74 -193 3 -220 5 -261 24 -66 31 -115
78 -145 141 -24 51 -26 65 -22 149 4 84 7 100 46 178 24 47 70 120 103 162 57
71 68 104 37 104 -7 0 -39 -11 -72 -25z m1199 -1246 c22 -6 52 -20 68 -31 28
-20 69 -91 80 -139 6 -24 3 -27 -24 -33 -43 -8 -117 12 -135 38 -8 11 -19 39
-25 60 -6 22 -25 53 -42 69 -25 23 -28 30 -16 38 19 12 46 11 94 -2z m-765
-341 c0 -5 -7 -8 -15 -8 -31 0 -61 -98 -75 -245 -26 -283 70 -628 277 -999 66
-119 138 -232 166 -263 11 -13 18 -25 15 -28 -9 -9 -191 191 -273 299 -147
193 -241 370 -308 581 -48 150 -67 267 -67 416 0 104 12 229 25 249 5 8 255 6
255 -2z m1606 -533 c151 0 174 -7 174 -49 0 -13 -10 -32 -22 -43 -51 -47 -166
-55 -334 -22 -58 11 -113 18 -120 15 -20 -8 -18 -27 16 -128 17 -50 28 -93 26
-95 -3 -3 -46 -5 -96 -4 -113 2 -144 16 -171 77 -45 101 21 212 151 255 14 5
72 5 130 1 58 -4 168 -7 246 -7z"/>
<path d="M7694 7279 c-2 -3 1 -21 7 -40 5 -19 10 -62 11 -96 1 -50 -4 -73 -28
-122 l-30 -60 50 -21 c72 -30 184 -37 277 -16 82 18 269 106 269 127 0 3 -21
27 -47 53 -110 111 -232 164 -401 175 -57 3 -105 3 -108 0z"/>
<path d="M1425 4730 c-3 -4 66 -115 152 -246 173 -264 231 -370 269 -488 27
-87 57 -245 52 -278 -3 -19 -7 -16 -31 20 -16 25 -32 40 -39 36 -7 -5 -8 -3
-3 5 15 25 -195 211 -237 211 -36 0 229 -588 347 -772 l56 -87 112 41 c424
153 932 246 1692 308 84 7 615 11 1509 10 1342 0 1380 -1 1410 -20 99 -61 184
-208 230 -398 10 -39 24 -73 32 -76 8 -3 54 -10 102 -16 268 -33 552 -96 786
-176 71 -24 132 -44 136 -44 23 0 241 336 347 535 79 148 193 387 193 404 0
17 -7 14 -78 -25 -88 -48 -171 -113 -269 -211 -46 -45 -83 -77 -83 -71 0 27
73 254 106 328 41 94 123 240 197 350 60 88 263 361 355 475 l65 80 -33 3
c-48 5 -221 -35 -330 -75 -270 -100 -476 -250 -637 -463 -109 -145 -232 -429
-259 -601 -9 -53 -24 -60 -24 -11 0 59 -27 206 -56 302 -87 289 -245 477 -520
617 -155 80 -384 153 -384 124 0 -17 97 -170 242 -382 218 -319 261 -424 303
-741 3 -27 2 -48 -2 -48 -5 0 -21 24 -35 53 -32 64 -140 199 -209 261 l-51 46
-2076 0 -2077 0 -46 -63 c-26 -34 -54 -77 -63 -94 -17 -35 -41 -46 -32 -15 5
19 145 588 150 613 8 37 -10 41 -64 15 -160 -77 -289 -246 -351 -459 -12 -42
-25 -77 -29 -77 -4 0 -10 62 -13 138 -23 472 -239 785 -640 928 -62 22 -167
43 -172 34z"/>
<path d="M6135 3369 c-382 -24 -890 -103 -1280 -200 -128 -32 -129 -32 -359
-105 -531 -167 -760 -361 -694 -588 18 -61 124 -164 218 -211 79 -40 258 -104
437 -156 163 -46 268 -85 373 -136 160 -77 270 -208 270 -320 0 -18 5 -33 10
-33 21 0 107 49 159 90 139 110 147 236 21 354 -63 59 -112 86 -285 156 -233
95 -307 145 -359 241 -36 65 -40 145 -12 199 51 94 196 191 376 250 187 61
363 84 289 37 -195 -122 -242 -160 -284 -227 -33 -52 -38 -80 -26 -128 23 -85
111 -141 356 -225 88 -31 192 -67 230 -82 201 -76 341 -196 379 -324 30 -104
15 -201 -49 -309 -23 -40 -30 -58 -20 -60 7 -2 65 9 128 23 342 76 618 221
707 370 62 105 51 218 -29 303 -100 104 -273 177 -668 281 -306 81 -404 122
-489 205 -159 155 -51 307 311 434 63 23 248 74 400 112 98 25 125 36 125 50
0 11 -45 11 -235 -1z"/>
<path d="M3940 3269 c-594 -32 -1123 -135 -1474 -288 -74 -33 -202 -111 -233
-143 -25 -26 -25 -30 -12 -54 7 -15 62 -80 121 -145 296 -325 650 -584 1040
-761 308 -139 556 -218 928 -292 116 -24 348 -51 357 -43 14 14 -40 101 -100
160 -82 81 -238 155 -557 263 -451 152 -577 212 -709 338 -75 73 -105 122
-120 197 -21 103 13 194 112 297 132 137 345 244 772 387 93 31 175 61 182 67
36 30 -20 33 -307 17z"/>
<path d="M6655 3183 c-199 -25 -437 -100 -528 -167 -60 -44 -72 -106 -31 -155
52 -62 158 -107 419 -178 277 -75 475 -151 581 -224 125 -86 190 -192 182
-296 l-5 -51 71 48 c156 105 326 254 326 286 0 33 -104 119 -200 167 -145 70
-281 113 -630 197 -160 38 -245 75 -283 119 -65 78 -12 149 161 216 39 15 72
32 72 37 0 8 -75 9 -135 1z"/>
</g>
</svg>
